<svg width="24" height="25" fill="none" xmlns="http://www.w3.org/2000/svg"><path d="M11.999 7.743a4.624 4.624 0 1 0 0 9.248 4.624 4.624 0 0 0 0-9.248Zm0 7.627a3.004 3.004 0 1 1 0-6.008 3.004 3.004 0 0 1 0 6.008ZM16.806 8.651a1.078 1.078 0 1 0 0-2.156 1.078 1.078 0 0 0 0 2.156Z" fill="#fff"/><path d="M20.533 6.477A4.605 4.605 0 0 0 17.9 3.845a6.606 6.606 0 0 0-2.186-.42c-.963-.042-1.268-.054-3.71-.054s-2.755 0-3.71.054a6.554 6.554 0 0 0-2.184.42 4.6 4.6 0 0 0-2.633 2.632 6.585 6.585 0 0 0-.419 2.186c-.043.962-.056 1.267-.056 3.71 0 2.442 0 2.753.056 3.71.015.748.156 1.486.419 2.187a4.61 4.61 0 0 0 2.634 2.632 6.584 6.584 0 0 0 2.185.45c.963.042 1.268.055 3.71.055s2.755 0 3.71-.055a6.616 6.616 0 0 0 2.186-.419 4.614 4.614 0 0 0 2.633-2.633c.263-.7.404-1.438.419-2.186.043-.962.056-1.267.056-3.71s0-2.753-.056-3.71a6.58 6.58 0 0 0-.421-2.217Zm-1.218 9.532a5.041 5.041 0 0 1-.311 1.688 2.988 2.988 0 0 1-1.712 1.711c-.535.198-1.1.304-1.67.311-.95.044-1.218.055-3.654.055-2.438 0-2.687 0-3.655-.055a4.961 4.961 0 0 1-1.669-.31 2.985 2.985 0 0 1-1.719-1.712 5.08 5.08 0 0 1-.311-1.669c-.043-.95-.053-1.218-.053-3.654 0-2.437 0-2.686.053-3.655a5.038 5.038 0 0 1 .311-1.687c.305-.789.93-1.41 1.719-1.712a5.01 5.01 0 0 1 1.669-.31c.951-.044 1.218-.056 3.655-.056s2.687 0 3.654.055a4.96 4.96 0 0 1 1.67.311 2.991 2.991 0 0 1 1.712 1.712c.197.535.302 1.1.311 1.67.043.95.054 1.217.054 3.654 0 2.436 0 2.698-.043 3.654h-.011Z" fill="#fff"/></svg>